<?xml version="1.0" encoding="utf-8" ?>
<svg baseProfile="full" height="384mm" version="1.1" width="790mm" xmlns="http://www.w3.org/2000/svg" xmlns:ev="http://www.w3.org/2001/xml-events" xmlns:xlink="http://www.w3.org/1999/xlink"><defs /><rect fill="none" height="384" stroke="rgb(0,0,255)" stroke-width="1.0" width="790" x="0" y="0" /><g id="triangle-10" transform="translate(0.0,20)"><text fill="none" stroke="rgb(246,146,30)" x="100.150052669" y="76.2730962584">-1,0L</text><polygon fill="none" points="0,0 118.150052669,0 118.150052669,37.5 122.150052669,37.5 122.150052669,0 240.300105337,0 188.567918276,97.6423618207 155.431370147,80.0861897412 153.558711792,83.620754875 186.695259921,101.176926954 134.963072861,198.819288775 68.6048241015,101.06440262 99.6315409588,80.0027587843 97.3849656163,76.6932423196 66.358248759,97.7548861552" stroke="rgb(0,0,255)" stroke-width="1.0" /><text fill="none" stroke="rgb(246,146,30)" transform="translate(124.150052669,7.5) rotate(180.0)" x="-2.0" y="0">(-1,0) W</text><text fill="none" stroke="rgb(246,146,30)" transform="translate(191.631589099,73.1596443876) rotate(-62.0847781638)" x="-2.0" y="0">(-1,0) W</text><text fill="none" stroke="rgb(246,146,30)" transform="translate(72.2815364303,99.4096443876) rotate(55.8304436724)" x="-2.0" y="0">(-1,0) S</text></g><g id="triangle0-1" transform="translate(250.300105337,20)"><text fill="none" stroke="rgb(246,146,30)" x="100.150052669" y="76.2730962584">0,-1L</text><polygon fill="none" points="0,0 118.150052669,0 118.150052669,37.5 122.150052669,37.5 122.150052669,0 240.300105337,0 188.567918276,97.6423618207 155.431370147,80.0861897412 153.558711792,83.620754875 186.695259921,101.176926954 134.963072861,198.819288775 68.6048241015,101.06440262 99.6315409588,80.0027587843 97.3849656163,76.6932423196 66.358248759,97.7548861552" stroke="rgb(0,0,255)" stroke-width="1.0" /><text fill="none" stroke="rgb(246,146,30)" transform="translate(124.150052669,7.5) rotate(180.0)" x="-2.0" y="0">(0,-1) S</text><text fill="none" stroke="rgb(246,146,30)" transform="translate(191.631589099,73.1596443876) rotate(-62.0847781638)" x="-2.0" y="0">(0,-1) E</text><text fill="none" stroke="rgb(246,146,30)" transform="translate(72.2815364303,99.4096443876) rotate(55.8304436724)" x="-2.0" y="0">(0,-1) S</text></g><g id="triangle00" transform="translate(500.600210674,20)"><text fill="none" stroke="rgb(246,146,30)" x="100.150052669" y="76.2730962584">0,0L</text><polygon fill="none" points="0,0 118.150052669,0 118.150052669,37.5 122.150052669,37.5 122.150052669,0 240.300105337,0 188.567918276,97.6423618207 155.431370147,80.0861897412 153.558711792,83.620754875 186.695259921,101.176926954 134.963072861,198.819288775 68.6048241015,101.06440262 99.6315409588,80.0027587843 97.3849656163,76.6932423196 66.358248759,97.7548861552" stroke="rgb(0,0,255)" stroke-width="1.0" /><text fill="none" stroke="rgb(246,146,30)" transform="translate(124.150052669,7.5) rotate(180.0)" x="-2.0" y="0">(0,0) S</text><text fill="none" stroke="rgb(246,146,30)" transform="translate(191.631589099,73.1596443876) rotate(-62.0847781638)" x="-2.0" y="0">(0,0) S</text><text fill="none" stroke="rgb(246,146,30)" transform="translate(72.2815364303,99.4096443876) rotate(55.8304436724)" x="-2.0" y="0">(0,0) W</text></g><g id="triangle-1-1" transform="translate(750.900316011,20)"><text fill="none" stroke="rgb(246,146,30)" x="100.150052669" y="76.2730962584">-1,-1R</text><polygon fill="none" points="0,0 118.150052669,0 118.150052669,37.5 122.150052669,37.5 122.150052669,0 240.300105337,0 188.567918276,97.6423618207 155.431370147,80.0861897412 153.558711792,83.620754875 186.695259921,101.176926954 134.963072861,198.819288775 68.6048241015,101.06440262 99.6315409588,80.0027587843 97.3849656163,76.6932423196 66.358248759,97.7548861552" stroke="rgb(0,0,255)" stroke-width="1.0" /><text fill="none" stroke="rgb(246,146,30)" transform="translate(124.150052669,7.5) rotate(180.0)" x="-2.0" y="0">(-1,-1) E</text><text fill="none" stroke="rgb(246,146,30)" transform="translate(191.631589099,73.1596443876) rotate(-62.0847781638)" x="-2.0" y="0">(-1,-1) E</text><text fill="none" stroke="rgb(246,146,30)" transform="translate(72.2815364303,99.4096443876) rotate(55.8304436724)" x="-2.0" y="0">(-1,0) S</text></g><g id="triangle-10" transform="translate(1001.20042135,20)"><text fill="none" stroke="rgb(246,146,30)" x="100.150052669" y="76.2730962584">-1,0R</text><polygon fill="none" points="0,0 118.150052669,0 118.150052669,37.5 122.150052669,37.5 122.150052669,0 240.300105337,0 188.567918276,97.6423618207 155.431370147,80.0861897412 153.558711792,83.620754875 186.695259921,101.176926954 134.963072861,198.819288775 68.6048241015,101.06440262 99.6315409588,80.0027587843 97.3849656163,76.6932423196 66.358248759,97.7548861552" stroke="rgb(0,0,255)" stroke-width="1.0" /><text fill="none" stroke="rgb(246,146,30)" transform="translate(124.150052669,7.5) rotate(180.0)" x="-2.0" y="0">(-1,1) S</text><text fill="none" stroke="rgb(246,146,30)" transform="translate(191.631589099,73.1596443876) rotate(-62.0847781638)" x="-2.0" y="0">(-1,1) S</text><text fill="none" stroke="rgb(246,146,30)" transform="translate(72.2815364303,99.4096443876) rotate(55.8304436724)" x="-2.0" y="0">(-1,0) E</text></g><g id="triangle0-1" transform="translate(1251.50052669,20)"><text fill="none" stroke="rgb(246,146,30)" x="100.150052669" y="76.2730962584">0,-1R</text><polygon fill="none" points="0,0 118.150052669,0 118.150052669,37.5 122.150052669,37.5 122.150052669,0 240.300105337,0 188.567918276,97.6423618207 155.431370147,80.0861897412 153.558711792,83.620754875 186.695259921,101.176926954 134.963072861,198.819288775 68.6048241015,101.06440262 99.6315409588,80.0027587843 97.3849656163,76.6932423196 66.358248759,97.7548861552" stroke="rgb(0,0,255)" stroke-width="1.0" /><text fill="none" stroke="rgb(246,146,30)" transform="translate(124.150052669,7.5) rotate(180.0)" x="-2.0" y="0">(0,-1) E</text><text fill="none" stroke="rgb(246,146,30)" transform="translate(191.631589099,73.1596443876) rotate(-62.0847781638)" x="-2.0" y="0">(1,-1) W</text><text fill="none" stroke="rgb(246,146,30)" transform="translate(72.2815364303,99.4096443876) rotate(55.8304436724)" x="-2.0" y="0">(0,-1) E</text></g></svg>